<?xml version="1.0" standalone="no"?>
<!DOCTYPE svg PUBLIC "-//W3C//DTD SVG 20010904//EN"
 "http://www.w3.org/TR/2001/REC-SVG-20010904/DTD/svg10.dtd">
<svg version="1.0" xmlns="http://www.w3.org/2000/svg"
 width="221.000000pt" height="221.000000pt" viewBox="0 0 221.000000 221.000000"
 preserveAspectRatio="xMidYMid meet">
<metadata>
Created by potrace 1.11, written by Peter Selinger 2001-2013
</metadata>
<g transform="translate(0.000000,221.000000) scale(0.100000,-0.100000)"
fill="#000000" stroke="none">
<path d="M1109 2168 c7 -10 10 -18 5 -18 -5 0 -2 -5 6 -10 10 -7 11 -10 2 -10
-7 0 -15 6 -18 14 -3 7 -17 14 -31 14 -14 0 -20 -3 -15 -7 6 -4 7 -12 3 -20
-6 -10 -10 -9 -15 4 -5 14 -9 15 -21 5 -8 -7 -15 -19 -15 -27 0 -8 -4 -12 -10
-8 -5 3 -7 13 -4 23 5 14 4 14 -4 3 -6 -8 -8 -21 -5 -29 5 -12 2 -12 -16 -3
-17 9 -21 9 -19 -1 2 -7 -3 -12 -10 -10 -9 2 -12 -4 -7 -17 7 -22 -10 -38 -21
-20 -4 8 -3 9 4 5 7 -4 12 -2 12 3 0 6 -9 11 -20 11 -11 0 -23 0 -27 0 -4 0
-8 -7 -9 -16 -2 -9 -8 -22 -15 -28 -9 -8 -10 -6 -5 9 4 11 4 16 0 12 -4 -4
-14 -1 -22 6 -13 10 -14 9 -3 -11 6 -12 8 -22 4 -21 -30 5 -63 -2 -57 -13 5
-7 0 -9 -14 -6 -12 4 -26 0 -33 -8 -6 -8 -16 -11 -22 -7 -6 3 -7 1 -3 -6 4 -6
11 -9 16 -6 5 3 11 2 14 -3 7 -12 -26 -11 -42 1 -9 7 -11 5 -6 -9 4 -10 4 -16
-1 -12 -15 14 -34 -25 -22 -47 9 -18 8 -18 -6 -7 -13 11 -15 10 -10 -9 4 -13
2 -20 -3 -16 -6 3 -16 1 -24 -5 -13 -8 -12 -9 2 -5 9 3 22 -1 29 -9 10 -12 9
-13 -3 -9 -20 8 -51 -23 -43 -42 4 -11 1 -13 -11 -9 -14 5 -15 4 -4 -9 7 -8 9
-15 4 -15 -5 0 -2 -5 6 -11 12 -9 11 -10 -6 -6 -18 4 -20 -1 -20 -34 0 -22 4
-39 8 -39 4 0 8 -5 8 -11 0 -5 -5 -7 -12 -3 -7 4 -8 3 -4 -5 4 -6 2 -19 -6
-28 -11 -14 -11 -16 2 -8 21 13 41 15 34 4 -3 -5 -9 -7 -14 -4 -4 3 -10 -2
-14 -10 -3 -8 -2 -15 3 -15 4 0 8 -7 8 -15 0 -11 -4 -12 -14 -3 -11 8 -12 7
-7 -6 3 -9 12 -16 19 -16 8 0 16 -4 19 -9 3 -4 -5 -7 -17 -6 -17 2 -23 -2 -23
-17 0 -19 1 -19 14 -1 10 12 13 13 9 3 -2 -8 0 -23 5 -33 6 -12 5 -17 -4 -15
-8 2 -12 -5 -11 -17 1 -11 0 -14 -3 -7 -3 6 -11 9 -17 5 -7 -3 -3 3 7 15 11
12 14 22 9 22 -6 0 -13 -7 -16 -15 -4 -8 -15 -12 -27 -10 -11 2 -18 0 -15 -6
4 -5 11 -7 16 -4 5 4 9 0 9 -7 0 -7 -12 -14 -27 -15 -19 -1 -22 1 -12 8 10 7
6 8 -15 6 -16 -2 -34 -11 -41 -21 -10 -13 -14 -14 -19 -4 -3 7 -4 3 -2 -10 4
-20 2 -21 -12 -10 -13 11 -15 11 -9 -4 4 -12 2 -15 -8 -11 -8 3 -12 10 -8 17
3 6 3 8 -2 4 -4 -4 -13 -17 -19 -29 -6 -12 -13 -20 -16 -19 -3 2 -15 -2 -27
-8 -14 -8 -24 -9 -28 -2 -4 6 -11 7 -17 4 -6 -4 -5 -10 3 -15 11 -7 11 -9 -2
-9 -9 0 -22 -7 -29 -15 -11 -13 -14 -13 -27 1 -11 10 -19 12 -27 4 -7 -5 -17
-6 -21 -2 -5 4 -5 1 -1 -6 6 -10 11 -10 22 -1 10 8 14 8 14 0 0 -12 -2 -13
-40 -15 -35 -2 -50 -14 -43 -34 6 -14 4 -15 -9 -4 -19 15 -35 -2 -32 -35 0
-12 -3 -20 -8 -17 -4 3 -5 10 -2 16 4 6 -4 3 -18 -8 -15 -10 -22 -21 -17 -22
5 -2 7 -8 4 -12 -3 -5 -1 -11 4 -15 6 -3 8 4 6 15 -2 11 0 18 5 15 17 -10 -2
-55 -23 -55 -8 0 -8 3 1 9 11 7 10 9 -3 14 -9 4 -13 3 -10 -3 3 -6 1 -10 -4
-10 -6 0 -11 -5 -11 -11 0 -5 4 -8 9 -5 5 3 11 -3 14 -13 3 -13 0 -18 -7 -15
-16 6 -17 -26 -2 -45 8 -11 8 -13 -1 -8 -12 7 -12 -12 3 -233 4 -63 7 -169 7
-235 0 -75 4 -123 11 -127 8 -6 8 -8 0 -8 -8 0 -10 -15 -8 -41 5 -49 12 -62
29 -55 7 2 31 0 54 -5 23 -5 58 -12 79 -15 20 -3 53 -9 72 -14 19 -5 53 -12
75 -16 22 -3 55 -12 74 -20 18 -8 37 -11 42 -8 5 3 9 0 9 -6 0 -6 4 -8 10 -5
6 3 10 2 10 -2 0 -5 15 -7 33 -5 19 2 58 -6 92 -19 69 -27 209 -34 227 -12 6
7 15 10 21 6 6 -4 27 -8 46 -9 106 -7 156 -17 204 -38 30 -13 76 -26 103 -29
52 -6 63 -9 136 -27 26 -7 54 -10 63 -6 8 3 15 2 15 -3 0 -4 19 -12 43 -18 23
-6 68 -18 100 -27 32 -9 62 -14 67 -11 5 3 10 0 12 -6 3 -9 10 -9 27 1 13 6
21 8 18 3 -4 -5 0 -10 8 -10 8 0 12 3 10 7 -2 3 16 12 41 18 38 10 66 34 190
159 80 81 146 152 147 158 1 5 6 13 10 16 5 3 9 20 9 37 1 17 5 29 10 26 4 -3
8 7 8 21 0 14 -4 24 -9 21 -20 -13 -3 26 25 56 l29 31 -35 -23 c-19 -14 -29
-17 -23 -9 7 9 9 20 5 24 -4 5 -2 5 4 2 6 -3 18 3 27 14 18 21 9 27 -11 7 -16
-16 -15 -3 0 22 10 16 10 24 0 40 -14 24 -9 26 12 5 9 -9 17 -11 21 -5 3 5 2
10 -4 10 -5 0 -8 9 -6 20 2 12 0 18 -6 15 -5 -4 -6 -11 -3 -17 4 -7 2 -8 -4
-4 -15 9 -5 31 21 45 12 6 14 9 5 7 -23 -7 -23 3 0 21 9 8 12 12 5 9 -8 -4
-11 4 -9 26 2 19 -4 41 -13 53 -15 19 -15 19 3 5 18 -14 19 -13 14 8 -4 14 -2
20 5 15 6 -4 8 0 4 10 -3 9 -1 18 6 21 7 2 3 5 -7 5 -19 1 -19 1 -1 14 13 10
15 16 6 21 -6 4 -8 12 -5 18 5 7 1 9 -9 5 -9 -3 -19 -1 -23 5 -4 7 -3 8 4 4
16 -9 15 7 0 22 -9 9 -9 15 -1 23 8 8 11 6 10 -6 -1 -10 4 -20 11 -22 6 -3 12
0 12 7 0 6 -5 8 -11 5 -6 -4 -9 0 -7 11 2 11 -2 18 -9 17 -7 -2 -13 2 -13 8 0
5 -4 7 -10 4 -6 -3 -7 1 -4 10 5 13 9 13 23 3 14 -12 15 -11 2 5 -9 12 -21 15
-35 11 l-21 -7 20 19 c12 11 14 15 6 9 -12 -8 -13 -6 -8 7 3 10 1 20 -5 24 -7
4 -8 3 -4 -4 4 -7 4 -12 -1 -12 -4 0 -16 14 -25 31 -10 17 -22 28 -27 24 -5
-3 -12 -1 -16 5 -3 5 -11 10 -18 10 -6 0 0 -8 13 -17 14 -10 28 -17 33 -15 14
4 7 -16 -9 -22 -8 -3 -12 -2 -9 4 3 5 -3 14 -14 19 -14 8 -21 8 -24 -2 -4 -7
-6 -6 -6 4 -1 11 -10 17 -25 17 -14 0 -32 7 -42 16 -12 12 -19 14 -29 6 -10
-9 -16 -7 -24 8 -6 11 -8 21 -6 24 2 2 -5 4 -15 5 -11 1 -20 -2 -20 -8 0 -5 5
-8 11 -6 6 1 15 -8 20 -20 5 -14 5 -23 -1 -23 -6 0 -10 10 -10 23 0 18 -2 19
-10 7 -6 -9 -10 -11 -10 -3 0 7 -6 11 -12 9 -7 -1 -10 -1 -5 1 4 3 5 9 1 14
-3 5 -1 9 5 9 5 0 8 9 6 20 -2 11 1 20 7 20 5 0 7 -7 4 -16 -3 -8 -2 -12 4 -9
15 9 12 26 -7 42 -10 8 -12 11 -4 7 10 -5 13 -3 8 9 -4 11 -2 14 8 10 8 -3 12
-10 8 -16 -3 -6 -1 -7 5 -3 9 5 9 12 0 26 -7 10 -16 16 -22 13 -5 -4 -6 -1 -2
6 6 9 12 9 25 -3 15 -14 18 -14 18 -1 0 8 -4 12 -9 9 -4 -3 -8 -2 -9 3 -6 46
-5 61 4 56 6 -4 8 0 4 10 -3 9 -1 19 5 23 6 4 8 3 5 -3 -3 -5 -1 -10 6 -10 7
0 13 8 13 18 0 9 -6 15 -12 12 -7 -2 -15 0 -19 6 -4 7 0 8 11 4 11 -4 15 -2
11 4 -4 6 2 21 13 33 19 22 19 25 4 47 -15 23 -15 24 4 14 36 -19 43 8 10 40
-13 12 -18 19 -11 15 15 -8 13 45 -2 57 -5 5 0 5 13 2 12 -4 22 -3 21 2 -1 4
0 10 1 13 7 16 6 61 -2 66 -4 3 -8 10 -8 15 0 6 5 7 12 3 7 -4 8 -3 4 4 -4 6
-14 8 -24 5 -14 -5 -15 -3 -5 7 7 8 9 20 4 29 -9 19 -8 32 3 49 5 9 1 15 -13
19 -17 4 -19 8 -10 19 10 12 9 13 -5 8 -10 -4 -15 -13 -12 -21 4 -8 1 -11 -5
-8 -6 4 -8 21 -5 38 5 27 5 29 -4 10 -12 -30 -18 -29 -16 4 1 18 -4 27 -18 29
-14 2 -16 0 -7 -9 6 -6 11 -15 11 -20 0 -5 -7 -2 -15 7 -18 17 -20 36 -3 36 6
0 9 3 5 6 -7 8 -48 -21 -42 -29 3 -4 2 -5 -2 -2 -10 8 -13 36 -3 30 5 -3 11
-1 14 4 10 15 -25 6 -35 -10 -8 -12 -10 -12 -8 1 3 31 -1 50 -12 50 -5 0 -7
-4 -4 -10 3 -5 -1 -10 -10 -10 -9 0 -13 5 -10 10 3 6 1 10 -4 10 -6 0 -11 -4
-11 -9 0 -5 -7 -12 -16 -15 -14 -5 -15 -4 -4 9 9 11 9 15 1 15 -7 0 -9 5 -5
12 4 7 3 8 -5 4 -6 -4 -9 -13 -5 -19 3 -7 -2 -3 -10 7 -15 19 -22 11 -16 -19
1 -5 -7 -2 -18 8 -10 9 -22 14 -25 10 -7 -6 -11 12 -8 30 1 5 -3 6 -9 2 -6 -3
-8 -10 -5 -15 3 -5 0 -12 -6 -16 -8 -4 -9 -3 -5 4 4 7 2 12 -4 12 -6 0 -8 5
-4 12 4 7 3 8 -5 4 -6 -4 -9 -11 -6 -16 3 -4 -2 -10 -10 -14 -8 -3 -17 0 -21
6 -4 7 -3 8 4 4 8 -5 12 1 12 15 l0 22 -20 -23 c-11 -13 -20 -19 -20 -14 0 6
5 15 11 21 8 8 7 13 -3 18 -7 5 -10 5 -6 0 5 -5 -1 -15 -12 -22 -11 -8 -17
-19 -14 -25 4 -7 2 -8 -5 -4 -9 6 -9 11 0 22 9 11 9 14 0 14 -7 0 -9 5 -5 12
4 7 3 8 -5 4 -6 -4 -9 -11 -6 -16 3 -5 1 -12 -5 -15 -6 -4 -10 -3 -9 2 3 20
-2 34 -11 28 -6 -4 -8 -11 -5 -16 3 -5 -1 -6 -10 -3 -12 5 -13 10 -6 17 6 6
11 15 11 20 0 5 -7 1 -16 -7 -20 -21 -30 -20 -44 2 -10 15 -11 15 -7 -4 5 -24
-11 -26 -35 -6 -8 6 -18 9 -21 5 -15 -14 -6 12 11 31 17 21 17 21 -4 4 -24
-21 -38 -23 -28 -5 4 6 4 9 -1 5 -4 -4 -17 -3 -28 3 -14 8 -18 8 -13 0 4 -6 2
-11 -3 -11 -6 0 -10 -5 -8 -11 1 -6 -5 -14 -13 -16 -13 -4 -13 -3 0 6 12 8 12
11 1 11 -11 0 -11 3 -1 15 7 9 10 18 6 22 -3 3 -6 1 -6 -6 0 -8 -6 -11 -16 -7
-12 5 -15 2 -10 -10 4 -10 2 -14 -6 -11 -7 2 -12 13 -10 23 3 16 1 16 -13 -4
-9 -12 -21 -19 -27 -16 -7 4 -6 9 2 14 9 5 9 9 1 14 -6 4 -11 2 -11 -5 0 -8
-5 -7 -17 2 -16 13 -17 12 -4 -3z m158 -38 c-1 -21 -10 -18 -13 5 -1 8 2 15 6
15 5 0 8 -9 7 -20z m-227 0 c0 -5 -5 -10 -11 -10 -5 0 -7 5 -4 10 3 6 8 10 11
10 2 0 4 -4 4 -10z m-74 -55 c-1 -8 -5 -17 -8 -21 -5 -4 -4 16 1 34 3 9 9 -1
7 -13z m-68 -36 c-3 -8 -7 -3 -11 10 -4 17 -3 21 5 13 5 -5 8 -16 6 -23z
m-145 -53 c4 -10 1 -13 -8 -9 -8 3 -12 9 -9 14 7 12 11 11 17 -5z m-57 -52
c-9 -8 -13 -21 -9 -27 4 -7 -1 -5 -11 2 -17 14 -17 15 0 28 25 18 39 16 20 -3z
m1239 -35 c-4 -6 -10 -8 -13 -5 -3 3 -11 1 -19 -5 -8 -8 -13 -8 -13 -1 0 11
16 20 38 21 7 1 10 -4 7 -10z m-1250 -29 c3 -6 -1 -7 -9 -4 -18 7 -21 14 -7
14 6 0 13 -4 16 -10z m1246 -27 c13 -16 12 -17 -3 -4 -10 7 -18 15 -18 17 0 8
8 3 21 -13z m-1286 -13 c4 -6 1 -9 -7 -8 -9 2 -13 -7 -12 -30 1 -18 -1 -30 -4
-27 -10 10 -10 50 0 63 13 15 15 15 23 2z m1302 -42 c16 -22 10 -61 -10 -64
-11 -1 -14 2 -10 9 11 18 10 51 -2 59 -7 5 -6 8 1 8 6 0 16 -6 21 -12z m-1340
-62 c0 -8 -6 -12 -14 -9 -7 3 -13 9 -13 14 0 5 6 9 13 9 8 0 14 -6 14 -14z
m1343 -126 c0 -15 -5 -12 -26 11 -19 22 -19 22 4 10 12 -6 22 -16 22 -21z
m-32 -46 c-1 -5 -9 -9 -16 -10 -10 -2 -11 1 -1 12 12 14 24 13 17 -2z m-1442
-116 c4 -7 3 -8 -4 -4 -7 4 -12 2 -12 -5 0 -7 -3 -10 -6 -6 -6 5 3 27 11 27 2
0 7 -5 11 -12z m-361 -188 c3 -6 -1 -7 -9 -4 -18 7 -21 14 -7 14 6 0 13 -4 16
-10z m1975 -110 c0 -5 -2 -10 -4 -10 -3 0 -8 5 -11 10 -3 6 -1 10 4 10 6 0 11
-4 11 -10z m95 -170 c3 -5 1 -10 -4 -10 -6 0 -11 5 -11 10 0 6 2 10 4 10 3 0
8 -4 11 -10z"/>
<path d="M1326 2141 c-3 -5 1 -14 9 -21 12 -10 15 -10 15 3 0 19 -16 31 -24
18z"/>
<path d="M1626 2091 c-3 -5 1 -14 9 -21 10 -9 15 -9 15 -1 0 6 -5 11 -11 11
-5 0 -7 5 -4 10 3 6 4 10 1 10 -3 0 -7 -4 -10 -9z"/>
<path d="M1953 1865 c0 -8 4 -12 9 -9 5 3 6 10 3 15 -9 13 -12 11 -12 -6z"/>
<path d="M1945 1668 c3 -11 7 -23 11 -27 4 -3 4 2 1 11 -3 9 -1 18 6 21 6 2 4
6 -5 10 -13 4 -16 1 -13 -15z"/>
<path d="M1920 1510 c-12 -7 -10 -9 7 -7 12 0 19 5 17 9 -6 10 -6 10 -24 -2z"/>
<path d="M1893 1428 c-17 -28 -11 -37 13 -21 28 18 31 25 7 16 -11 -4 -14 -3
-9 5 4 7 5 12 2 12 -3 0 -8 -6 -13 -12z"/>
<path d="M314 1374 c-19 -15 -19 -15 1 -6 11 6 24 10 28 10 16 0 21 12 6 12
-9 0 -24 -7 -35 -16z"/>
<path d="M230 1340 c0 -5 4 -10 9 -10 6 0 13 5 16 10 3 6 -1 10 -9 10 -9 0
-16 -4 -16 -10z"/>
<path d="M2125 550 c-3 -5 -1 -10 4 -10 6 0 11 5 11 10 0 6 -2 10 -4 10 -3 0
-8 -4 -11 -10z"/>
</g>
</svg>
